<mxfile host="Electron" agent="Mozilla/5.0 (Windows NT 10.0; Win64; x64) AppleWebKit/537.36 (KHTML, like Gecko) draw.io/24.7.17 Chrome/128.0.6613.36 Electron/32.0.1 Safari/537.36" version="24.7.17">
  <diagram name="Strona-1" id="sUQAcpto6n32Xw1tbFmP">
    <mxGraphModel dx="1434" dy="836" grid="1" gridSize="10" guides="1" tooltips="1" connect="1" arrows="1" fold="1" page="1" pageScale="1" pageWidth="827" pageHeight="1169" math="0" shadow="0">
      <root>
        <mxCell id="0" />
        <mxCell id="1" parent="0" />
        <mxCell id="-8ydR7LuJqTs1enXFbCZ-1" value="Get departments" style="shape=hexagon;perimeter=hexagonPerimeter2;whiteSpace=wrap;html=1;fixedSize=1;" parent="1" vertex="1">
          <mxGeometry x="570" y="225" width="90" height="80" as="geometry" />
        </mxCell>
        <mxCell id="-8ydR7LuJqTs1enXFbCZ-25" style="edgeStyle=orthogonalEdgeStyle;rounded=0;orthogonalLoop=1;jettySize=auto;html=1;entryX=0.75;entryY=0;entryDx=0;entryDy=0;shape=link;" parent="1" source="-8ydR7LuJqTs1enXFbCZ-5" target="-8ydR7LuJqTs1enXFbCZ-20" edge="1">
          <mxGeometry relative="1" as="geometry" />
        </mxCell>
        <mxCell id="-8ydR7LuJqTs1enXFbCZ-5" value="Get prices" style="shape=hexagon;perimeter=hexagonPerimeter2;whiteSpace=wrap;html=1;fixedSize=1;" parent="1" vertex="1">
          <mxGeometry x="120" y="250" width="90" height="80" as="geometry" />
        </mxCell>
        <mxCell id="-8ydR7LuJqTs1enXFbCZ-9" value="" style="group;fillColor=#dae8fc;strokeColor=#6c8ebf;" parent="1" vertex="1" connectable="0">
          <mxGeometry x="330" y="220" width="180" height="90" as="geometry" />
        </mxCell>
        <mxCell id="-8ydR7LuJqTs1enXFbCZ-7" value="" style="rounded=0;whiteSpace=wrap;html=1;connectable=1;fillColor=#dae8fc;strokeColor=#6c8ebf;" parent="-8ydR7LuJqTs1enXFbCZ-9" vertex="1">
          <mxGeometry width="180" height="90" as="geometry" />
        </mxCell>
        <mxCell id="-8ydR7LuJqTs1enXFbCZ-8" value="Client" style="rounded=0;whiteSpace=wrap;html=1;connectable=1;" parent="-8ydR7LuJqTs1enXFbCZ-9" vertex="1">
          <mxGeometry width="130" height="50" as="geometry" />
        </mxCell>
        <mxCell id="-8ydR7LuJqTs1enXFbCZ-10" value="" style="group" parent="1" vertex="1" connectable="0">
          <mxGeometry x="340" y="400" width="180" height="90" as="geometry" />
        </mxCell>
        <mxCell id="-8ydR7LuJqTs1enXFbCZ-11" value="" style="rounded=0;whiteSpace=wrap;html=1;connectable=1;fillColor=#dae8fc;strokeColor=#6c8ebf;" parent="-8ydR7LuJqTs1enXFbCZ-10" vertex="1">
          <mxGeometry width="180" height="90" as="geometry" />
        </mxCell>
        <mxCell id="-8ydR7LuJqTs1enXFbCZ-12" value="DepartmentAgent" style="rounded=0;whiteSpace=wrap;html=1;connectable=1;" parent="-8ydR7LuJqTs1enXFbCZ-10" vertex="1">
          <mxGeometry width="130" height="50" as="geometry" />
        </mxCell>
        <mxCell id="-8ydR7LuJqTs1enXFbCZ-14" style="edgeStyle=orthogonalEdgeStyle;rounded=0;orthogonalLoop=1;jettySize=auto;html=1;entryX=0;entryY=0.5;entryDx=0;entryDy=0;shape=link;" parent="1" source="-8ydR7LuJqTs1enXFbCZ-7" target="-8ydR7LuJqTs1enXFbCZ-1" edge="1">
          <mxGeometry relative="1" as="geometry" />
        </mxCell>
        <mxCell id="-8ydR7LuJqTs1enXFbCZ-15" value="" style="group;fillColor=#ffe6cc;strokeColor=#d79b00;" parent="1" vertex="1" connectable="0">
          <mxGeometry x="60" y="20" width="180" height="90" as="geometry" />
        </mxCell>
        <mxCell id="-8ydR7LuJqTs1enXFbCZ-16" value="" style="rounded=0;whiteSpace=wrap;html=1;connectable=1;fillColor=#dae8fc;strokeColor=#6c8ebf;" parent="-8ydR7LuJqTs1enXFbCZ-15" vertex="1">
          <mxGeometry width="180" height="90" as="geometry" />
        </mxCell>
        <mxCell id="-8ydR7LuJqTs1enXFbCZ-17" value="ServiceOpinionAgent" style="rounded=0;whiteSpace=wrap;html=1;connectable=1;" parent="-8ydR7LuJqTs1enXFbCZ-15" vertex="1">
          <mxGeometry width="130" height="50" as="geometry" />
        </mxCell>
        <mxCell id="-8ydR7LuJqTs1enXFbCZ-18" value="" style="group" parent="1" vertex="1" connectable="0">
          <mxGeometry x="110" y="470" width="180" height="90" as="geometry" />
        </mxCell>
        <mxCell id="-8ydR7LuJqTs1enXFbCZ-19" value="" style="rounded=0;whiteSpace=wrap;html=1;connectable=1;fillColor=#dae8fc;strokeColor=#6c8ebf;" parent="-8ydR7LuJqTs1enXFbCZ-18" vertex="1">
          <mxGeometry width="180" height="90" as="geometry" />
        </mxCell>
        <mxCell id="-8ydR7LuJqTs1enXFbCZ-20" value="PriceHandlerAgent" style="rounded=0;whiteSpace=wrap;html=1;connectable=1;" parent="-8ydR7LuJqTs1enXFbCZ-18" vertex="1">
          <mxGeometry width="130" height="50" as="geometry" />
        </mxCell>
        <mxCell id="-8ydR7LuJqTs1enXFbCZ-21" style="edgeStyle=orthogonalEdgeStyle;rounded=0;orthogonalLoop=1;jettySize=auto;html=1;entryX=0.685;entryY=0.1;entryDx=0;entryDy=0;entryPerimeter=0;shape=link;" parent="1" source="-8ydR7LuJqTs1enXFbCZ-1" target="-8ydR7LuJqTs1enXFbCZ-12" edge="1">
          <mxGeometry relative="1" as="geometry">
            <Array as="points">
              <mxPoint x="615" y="370" />
              <mxPoint x="429" y="370" />
            </Array>
          </mxGeometry>
        </mxCell>
        <mxCell id="-8ydR7LuJqTs1enXFbCZ-28" style="edgeStyle=orthogonalEdgeStyle;rounded=0;orthogonalLoop=1;jettySize=auto;html=1;entryX=1;entryY=0.5;entryDx=0;entryDy=0;shape=link;" parent="1" source="-8ydR7LuJqTs1enXFbCZ-22" target="-8ydR7LuJqTs1enXFbCZ-16" edge="1">
          <mxGeometry relative="1" as="geometry" />
        </mxCell>
        <mxCell id="-8ydR7LuJqTs1enXFbCZ-22" value="Get opinions" style="shape=hexagon;perimeter=hexagonPerimeter2;whiteSpace=wrap;html=1;fixedSize=1;" parent="1" vertex="1">
          <mxGeometry x="360" y="60" width="90" height="80" as="geometry" />
        </mxCell>
        <mxCell id="-8ydR7LuJqTs1enXFbCZ-23" value="Create final report" style="shape=hexagon;perimeter=hexagonPerimeter2;whiteSpace=wrap;html=1;fixedSize=1;" parent="1" vertex="1">
          <mxGeometry x="660" y="120" width="90" height="80" as="geometry" />
        </mxCell>
        <mxCell id="-8ydR7LuJqTs1enXFbCZ-24" style="edgeStyle=orthogonalEdgeStyle;rounded=0;orthogonalLoop=1;jettySize=auto;html=1;shape=link;" parent="1" source="-8ydR7LuJqTs1enXFbCZ-7" target="-8ydR7LuJqTs1enXFbCZ-5" edge="1">
          <mxGeometry relative="1" as="geometry" />
        </mxCell>
        <mxCell id="-8ydR7LuJqTs1enXFbCZ-27" style="edgeStyle=orthogonalEdgeStyle;rounded=0;orthogonalLoop=1;jettySize=auto;html=1;entryX=0.5;entryY=1;entryDx=0;entryDy=0;shape=link;" parent="1" source="-8ydR7LuJqTs1enXFbCZ-8" target="-8ydR7LuJqTs1enXFbCZ-22" edge="1">
          <mxGeometry relative="1" as="geometry" />
        </mxCell>
        <mxCell id="-8ydR7LuJqTs1enXFbCZ-29" value="" style="group" parent="1" vertex="1" connectable="0">
          <mxGeometry x="620" y="550" width="180" height="90" as="geometry" />
        </mxCell>
        <mxCell id="-8ydR7LuJqTs1enXFbCZ-30" value="" style="rounded=0;whiteSpace=wrap;html=1;connectable=1;fillColor=#dae8fc;strokeColor=#6c8ebf;" parent="-8ydR7LuJqTs1enXFbCZ-29" vertex="1">
          <mxGeometry width="180" height="90" as="geometry" />
        </mxCell>
        <mxCell id="-8ydR7LuJqTs1enXFbCZ-31" value="Reporter" style="rounded=0;whiteSpace=wrap;html=1;connectable=1;" parent="-8ydR7LuJqTs1enXFbCZ-29" vertex="1">
          <mxGeometry width="130" height="50" as="geometry" />
        </mxCell>
        <mxCell id="-8ydR7LuJqTs1enXFbCZ-32" style="edgeStyle=orthogonalEdgeStyle;rounded=0;orthogonalLoop=1;jettySize=auto;html=1;exitX=0.75;exitY=0;exitDx=0;exitDy=0;entryX=0;entryY=0.5;entryDx=0;entryDy=0;shape=link;" parent="1" source="-8ydR7LuJqTs1enXFbCZ-8" target="-8ydR7LuJqTs1enXFbCZ-23" edge="1">
          <mxGeometry relative="1" as="geometry">
            <Array as="points">
              <mxPoint x="428" y="160" />
              <mxPoint x="650" y="160" />
            </Array>
          </mxGeometry>
        </mxCell>
        <mxCell id="-8ydR7LuJqTs1enXFbCZ-33" style="edgeStyle=orthogonalEdgeStyle;rounded=0;orthogonalLoop=1;jettySize=auto;html=1;entryX=0.7;entryY=0.08;entryDx=0;entryDy=0;entryPerimeter=0;shape=link;" parent="1" source="-8ydR7LuJqTs1enXFbCZ-23" target="-8ydR7LuJqTs1enXFbCZ-31" edge="1">
          <mxGeometry relative="1" as="geometry" />
        </mxCell>
        <mxCell id="dqWACuFBf9B-TL834D2K-5" value="Get opinion data" style="shape=hexagon;perimeter=hexagonPerimeter2;whiteSpace=wrap;html=1;fixedSize=1;" parent="1" vertex="1">
          <mxGeometry x="414" y="770" width="90" height="80" as="geometry" />
        </mxCell>
        <mxCell id="dqWACuFBf9B-TL834D2K-13" style="edgeStyle=orthogonalEdgeStyle;rounded=0;orthogonalLoop=1;jettySize=auto;html=1;entryX=0;entryY=0.5;entryDx=0;entryDy=0;shape=link;" parent="1" source="dqWACuFBf9B-TL834D2K-6" target="-8ydR7LuJqTs1enXFbCZ-30" edge="1">
          <mxGeometry relative="1" as="geometry" />
        </mxCell>
        <mxCell id="dqWACuFBf9B-TL834D2K-6" value="Get department data" style="shape=hexagon;perimeter=hexagonPerimeter2;whiteSpace=wrap;html=1;fixedSize=1;" parent="1" vertex="1">
          <mxGeometry x="414" y="570" width="90" height="80" as="geometry" />
        </mxCell>
        <mxCell id="dqWACuFBf9B-TL834D2K-10" style="edgeStyle=orthogonalEdgeStyle;rounded=0;orthogonalLoop=1;jettySize=auto;html=1;shape=link;" parent="1" source="dqWACuFBf9B-TL834D2K-7" target="-8ydR7LuJqTs1enXFbCZ-30" edge="1">
          <mxGeometry relative="1" as="geometry" />
        </mxCell>
        <mxCell id="dqWACuFBf9B-TL834D2K-7" value="Get price data" style="shape=hexagon;perimeter=hexagonPerimeter2;whiteSpace=wrap;html=1;fixedSize=1;" parent="1" vertex="1">
          <mxGeometry x="414" y="670" width="90" height="80" as="geometry" />
        </mxCell>
        <mxCell id="dqWACuFBf9B-TL834D2K-9" style="edgeStyle=orthogonalEdgeStyle;rounded=0;orthogonalLoop=1;jettySize=auto;html=1;entryX=0;entryY=0.5;entryDx=0;entryDy=0;shape=link;" parent="1" source="-8ydR7LuJqTs1enXFbCZ-19" target="dqWACuFBf9B-TL834D2K-7" edge="1">
          <mxGeometry relative="1" as="geometry" />
        </mxCell>
        <mxCell id="dqWACuFBf9B-TL834D2K-12" style="edgeStyle=orthogonalEdgeStyle;rounded=0;orthogonalLoop=1;jettySize=auto;html=1;entryX=0;entryY=0.5;entryDx=0;entryDy=0;shape=link;" parent="1" source="-8ydR7LuJqTs1enXFbCZ-11" target="dqWACuFBf9B-TL834D2K-6" edge="1">
          <mxGeometry relative="1" as="geometry" />
        </mxCell>
        <mxCell id="dqWACuFBf9B-TL834D2K-14" style="edgeStyle=orthogonalEdgeStyle;rounded=0;orthogonalLoop=1;jettySize=auto;html=1;entryX=0;entryY=0.5;entryDx=0;entryDy=0;shape=link;" parent="1" source="-8ydR7LuJqTs1enXFbCZ-16" target="dqWACuFBf9B-TL834D2K-5" edge="1">
          <mxGeometry relative="1" as="geometry">
            <Array as="points">
              <mxPoint x="40" y="65" />
              <mxPoint x="40" y="800" />
            </Array>
          </mxGeometry>
        </mxCell>
        <mxCell id="dqWACuFBf9B-TL834D2K-15" style="edgeStyle=orthogonalEdgeStyle;rounded=0;orthogonalLoop=1;jettySize=auto;html=1;entryX=0.794;entryY=0.989;entryDx=0;entryDy=0;entryPerimeter=0;shape=link;" parent="1" source="dqWACuFBf9B-TL834D2K-5" target="-8ydR7LuJqTs1enXFbCZ-30" edge="1">
          <mxGeometry relative="1" as="geometry" />
        </mxCell>
      </root>
    </mxGraphModel>
  </diagram>
</mxfile>
